<svg viewBox="0 0 100 100" fill="none" xmlns="http://www.w3.org/2000/svg">
  <defs>
    <linearGradient id="silverSpineGradientLarge" x1="20" y1="15" x2="64" y2="85" gradientUnits="userSpaceOnUse">
      <stop offset="0%" stop-color="#E4E4E7" />
      <stop offset="20%" stop-color="#FAFAFA" />
      <stop offset="50%" stop-color="#FFFFFF" />
      <stop offset="80%" stop-color="#E4E4E7" />
      <stop offset="100%" stop-color="#A1A1AA" />
    </linearGradient>
    <linearGradient id="purpleWaveGradientLarge" x1="10" y1="50" x2="68" y2="44" gradientUnits="userSpaceOnUse">
      <stop offset="0%" stop-color="#D8B4FE" />
      <stop offset="50%" stop-color="#C084FC" />
      <stop offset="100%" stop-color="#818CF8" />
    </linearGradient>
    <radialGradient id="spotlightGlowLarge" cx="22" cy="50" r="16" gradientUnits="userSpaceOnUse">
      <stop offset="0%" stop-color="#FFFFFF" stop-opacity="1" />
      <stop offset="25%" stop-color="#E9D5FF" stop-opacity="0.8" />
      <stop offset="60%" stop-color="#C084FC" stop-opacity="0.25" />
      <stop offset="100%" stop-color="#C084FC" stop-opacity="0" />
    </radialGradient>
  </defs>

  <circle cx="22" cy="50" r="18" fill="url(#spotlightGlowLarge)" opacity="0.1" />
  <path
    d="M 64,15 C 32,15 16,28 16,50 C 16,72 32,85 64,85 V 83 C 34,83 28,70 28,50 C 28,30 34,17 64,17 Z"
    fill="url(#silverSpineGradientLarge)"
  />
  <path
    d="M 10,60 C 20,52 20,44 26,44 C 34,44 44,53 52,53 C 60,53 64,48 68,44 C 64,47 52,56 44,56 C 36,56 26,48 10,60 Z"
    fill="url(#purpleWaveGradientLarge)"
  />
  <circle cx="22" cy="50" r="8" fill="url(#spotlightGlowLarge)" opacity="0.2" />
  <path
    d="M 68,27 Q 68,36 60,36 Q 68,36 68,45 Q 68,36 76,36 Q 68,36 68,27 Z"
    fill="url(#purpleWaveGradientLarge)"
  />
</svg>